<?xml version="1.0" encoding="UTF-8" standalone="no"?>
<!DOCTYPE svg PUBLIC "-//W3C//DTD SVG 1.1//EN"
 "http://www.w3.org/Graphics/SVG/1.1/DTD/svg11.dtd">
<!-- Generated by graphviz version 2.40.1 (0)
 -->
<!-- Title: tree Pages: 1 -->
<svg width="510pt" height="260pt"
 viewBox="0.00 0.00 510.29 260.00" xmlns="http://www.w3.org/2000/svg" xmlns:xlink="http://www.w3.org/1999/xlink">
<g id="graph0" class="graph" transform="scale(1 1) rotate(0) translate(4 256)">
<title>tree</title>
<polygon fill="#ffffff" stroke="transparent" points="-4,4 -4,-256 506.2895,-256 506.2895,4 -4,4"/>
<!-- Nó Raiz -->
<g id="node1" class="node">
<title>Nó Raiz</title>
<ellipse fill="none" stroke="#000000" cx="331.1448" cy="-234" rx="47.3916" ry="18"/>
<text text-anchor="middle" x="331.1448" y="-230.3" font-family="Times,serif" font-size="14.00" fill="#000000">Nó Raiz</text>
</g>
<!-- Nó A -->
<g id="node2" class="node">
<title>Nó A</title>
<ellipse fill="none" stroke="#000000" cx="195.1448" cy="-162" rx="34.394" ry="18"/>
<text text-anchor="middle" x="195.1448" y="-158.3" font-family="Times,serif" font-size="14.00" fill="#000000">Nó A</text>
</g>
<!-- Nó Raiz&#45;&gt;Nó A -->
<g id="edge1" class="edge">
<title>Nó Raiz&#45;&gt;Nó A</title>
<path fill="none" stroke="#000000" d="M303.2949,-219.256C281.7116,-207.8295 251.7206,-191.9519 228.7944,-179.8145"/>
<polygon fill="#000000" stroke="#000000" points="230.2365,-176.6178 219.761,-175.0321 226.9613,-182.8043 230.2365,-176.6178"/>
</g>
<!-- Nó B -->
<g id="node5" class="node">
<title>Nó B</title>
<ellipse fill="none" stroke="#000000" cx="331.1448" cy="-162" rx="34.394" ry="18"/>
<text text-anchor="middle" x="331.1448" y="-158.3" font-family="Times,serif" font-size="14.00" fill="#000000">Nó B</text>
</g>
<!-- Nó Raiz&#45;&gt;Nó B -->
<g id="edge2" class="edge">
<title>Nó Raiz&#45;&gt;Nó B</title>
<path fill="none" stroke="#000000" d="M331.1448,-215.8314C331.1448,-208.131 331.1448,-198.9743 331.1448,-190.4166"/>
<polygon fill="#000000" stroke="#000000" points="334.6449,-190.4132 331.1448,-180.4133 327.6449,-190.4133 334.6449,-190.4132"/>
</g>
<!-- Nó C -->
<g id="node7" class="node">
<title>Nó C</title>
<ellipse fill="none" stroke="#000000" cx="430.1448" cy="-162" rx="34.394" ry="18"/>
<text text-anchor="middle" x="430.1448" y="-158.3" font-family="Times,serif" font-size="14.00" fill="#000000">Nó C</text>
</g>
<!-- Nó Raiz&#45;&gt;Nó C -->
<g id="edge3" class="edge">
<title>Nó Raiz&#45;&gt;Nó C</title>
<path fill="none" stroke="#000000" d="M353.1161,-218.0209C367.4393,-207.604 386.2714,-193.9079 401.7296,-182.6656"/>
<polygon fill="#000000" stroke="#000000" points="403.8916,-185.421 409.9203,-176.7087 399.7743,-179.7598 403.8916,-185.421"/>
</g>
<!-- Nó folha 1 -->
<g id="node3" class="node">
<title>Nó folha 1</title>
<ellipse fill="none" stroke="#000000" cx="59.1448" cy="-90" rx="59.2899" ry="18"/>
<text text-anchor="middle" x="59.1448" y="-86.3" font-family="Times,serif" font-size="14.00" fill="#000000">Nó folha 1</text>
</g>
<!-- Nó A&#45;&gt;Nó folha 1 -->
<g id="edge4" class="edge">
<title>Nó A&#45;&gt;Nó folha 1</title>
<path fill="none" stroke="#000000" d="M170.8307,-149.1278C150.5958,-138.4152 121.4109,-122.9644 97.9494,-110.5436"/>
<polygon fill="#000000" stroke="#000000" points="99.4187,-107.3613 88.9432,-105.7757 96.1435,-113.5479 99.4187,-107.3613"/>
</g>
<!-- Nó folha 2 -->
<g id="node4" class="node">
<title>Nó folha 2</title>
<ellipse fill="none" stroke="#000000" cx="195.1448" cy="-90" rx="59.2899" ry="18"/>
<text text-anchor="middle" x="195.1448" y="-86.3" font-family="Times,serif" font-size="14.00" fill="#000000">Nó folha 2</text>
</g>
<!-- Nó A&#45;&gt;Nó folha 2 -->
<g id="edge5" class="edge">
<title>Nó A&#45;&gt;Nó folha 2</title>
<path fill="none" stroke="#000000" d="M195.1448,-143.8314C195.1448,-136.131 195.1448,-126.9743 195.1448,-118.4166"/>
<polygon fill="#000000" stroke="#000000" points="198.6449,-118.4132 195.1448,-108.4133 191.6449,-118.4133 198.6449,-118.4132"/>
</g>
<!-- Nó folha 3 -->
<g id="node6" class="node">
<title>Nó folha 3</title>
<ellipse fill="none" stroke="#000000" cx="331.1448" cy="-90" rx="59.2899" ry="18"/>
<text text-anchor="middle" x="331.1448" y="-86.3" font-family="Times,serif" font-size="14.00" fill="#000000">Nó folha 3</text>
</g>
<!-- Nó B&#45;&gt;Nó folha 3 -->
<g id="edge6" class="edge">
<title>Nó B&#45;&gt;Nó folha 3</title>
<path fill="none" stroke="#000000" d="M331.1448,-143.8314C331.1448,-136.131 331.1448,-126.9743 331.1448,-118.4166"/>
<polygon fill="#000000" stroke="#000000" points="334.6449,-118.4132 331.1448,-108.4133 327.6449,-118.4133 334.6449,-118.4132"/>
</g>
<!-- Nó D -->
<g id="node8" class="node">
<title>Nó D</title>
<ellipse fill="none" stroke="#000000" cx="443.1448" cy="-90" rx="34.394" ry="18"/>
<text text-anchor="middle" x="443.1448" y="-86.3" font-family="Times,serif" font-size="14.00" fill="#000000">Nó D</text>
</g>
<!-- Nó C&#45;&gt;Nó D -->
<g id="edge7" class="edge">
<title>Nó C&#45;&gt;Nó D</title>
<path fill="none" stroke="#000000" d="M433.4252,-143.8314C434.8156,-136.131 436.4688,-126.9743 438.014,-118.4166"/>
<polygon fill="#000000" stroke="#000000" points="441.4875,-118.8761 439.8201,-108.4133 434.5989,-117.6322 441.4875,-118.8761"/>
</g>
<!-- Nó folha 4 -->
<g id="node9" class="node">
<title>Nó folha 4</title>
<ellipse fill="none" stroke="#000000" cx="443.1448" cy="-18" rx="59.2899" ry="18"/>
<text text-anchor="middle" x="443.1448" y="-14.3" font-family="Times,serif" font-size="14.00" fill="#000000">Nó folha 4</text>
</g>
<!-- Nó D&#45;&gt;Nó folha 4 -->
<g id="edge8" class="edge">
<title>Nó D&#45;&gt;Nó folha 4</title>
<path fill="none" stroke="#000000" d="M443.1448,-71.8314C443.1448,-64.131 443.1448,-54.9743 443.1448,-46.4166"/>
<polygon fill="#000000" stroke="#000000" points="446.6449,-46.4132 443.1448,-36.4133 439.6449,-46.4133 446.6449,-46.4132"/>
</g>
</g>
</svg>
