<?xml version="1.0" encoding="UTF-8" standalone="no"?>
<!DOCTYPE svg PUBLIC "-//W3C//DTD SVG 1.1//EN"
 "http://www.w3.org/Graphics/SVG/1.1/DTD/svg11.dtd">
<!-- Generated by graphviz version 2.40.1 (0)
 -->
<!-- Title: %3 Pages: 1 -->
<svg width="595pt" height="305pt"
 viewBox="0.00 0.00 595.49 305.00" xmlns="http://www.w3.org/2000/svg" xmlns:xlink="http://www.w3.org/1999/xlink">
<g id="graph0" class="graph" transform="scale(1 1) rotate(0) translate(4 301)">
<title>%3</title>
<polygon fill="#ffffff" stroke="transparent" points="-4,4 -4,-301 591.4867,-301 591.4867,4 -4,4"/>
<!-- 1 -->
<g id="node1" class="node">
<title>1</title>
<polygon fill="none" stroke="#000000" points="473.4435,-297 291.4435,-297 291.4435,-261 473.4435,-261 473.4435,-297"/>
<text text-anchor="middle" x="382.4435" y="-275.3" font-family="Times,serif" font-size="14.00" fill="#000000">O tempo está nublado?</text>
</g>
<!-- 2 -->
<g id="node2" class="node">
<title>2</title>
<polygon fill="none" stroke="#000000" points="406.9435,-210 161.9435,-210 161.9435,-174 406.9435,-174 406.9435,-210"/>
<text text-anchor="middle" x="284.4435" y="-188.3" font-family="Times,serif" font-size="14.00" fill="#000000">A temperatura é menor que 22?</text>
</g>
<!-- 1&#45;&gt;2 -->
<g id="edge2" class="edge">
<title>1&#45;&gt;2</title>
<path fill="none" stroke="#000000" d="M362.1378,-260.9735C347.8152,-248.2586 328.4424,-231.0603 312.625,-217.0183"/>
<polygon fill="#000000" stroke="#000000" points="314.5251,-214.0249 304.7231,-210.0034 309.8778,-219.2597 314.5251,-214.0249"/>
<text text-anchor="middle" x="354.4435" y="-231.8" font-family="Times,serif" font-size="14.00" fill="#000000">Não</text>
</g>
<!-- rA -->
<g id="node5" class="node">
<title>rA</title>
<ellipse fill="none" stroke="#000000" cx="480.4435" cy="-192" rx="55.7903" ry="18"/>
<text text-anchor="middle" x="480.4435" y="-188.3" font-family="Times,serif" font-size="14.00" fill="#000000">Tem jogo.</text>
</g>
<!-- 1&#45;&gt;rA -->
<g id="edge1" class="edge">
<title>1&#45;&gt;rA</title>
<path fill="none" stroke="#000000" d="M402.7491,-260.9735C417.4922,-247.8853 437.5864,-230.0466 453.6457,-215.7899"/>
<polygon fill="#000000" stroke="#000000" points="456.0094,-218.3717 461.1641,-209.1154 451.3621,-213.1369 456.0094,-218.3717"/>
<text text-anchor="middle" x="451.4435" y="-231.8" font-family="Times,serif" font-size="14.00" fill="#000000">Sim</text>
</g>
<!-- 3 -->
<g id="node3" class="node">
<title>3</title>
<polygon fill="none" stroke="#000000" points="246.9435,-123 147.9435,-123 147.9435,-87 246.9435,-87 246.9435,-123"/>
<text text-anchor="middle" x="197.4435" y="-101.3" font-family="Times,serif" font-size="14.00" fill="#000000">Tem vento?</text>
</g>
<!-- 2&#45;&gt;3 -->
<g id="edge3" class="edge">
<title>2&#45;&gt;3</title>
<path fill="none" stroke="#000000" d="M266.417,-173.9735C253.8187,-161.3752 236.819,-144.3755 222.849,-130.4055"/>
<polygon fill="#000000" stroke="#000000" points="224.9928,-127.5996 215.4468,-123.0034 220.0431,-132.5493 224.9928,-127.5996"/>
<text text-anchor="middle" x="260.4435" y="-144.8" font-family="Times,serif" font-size="14.00" fill="#000000">Sim</text>
</g>
<!-- 4 -->
<g id="node4" class="node">
<title>4</title>
<polygon fill="none" stroke="#000000" points="481.9435,-123 264.9435,-123 264.9435,-87 481.9435,-87 481.9435,-123"/>
<text text-anchor="middle" x="373.4435" y="-101.3" font-family="Times,serif" font-size="14.00" fill="#000000">A umidade é menor que 85?</text>
</g>
<!-- 2&#45;&gt;4 -->
<g id="edge6" class="edge">
<title>2&#45;&gt;4</title>
<path fill="none" stroke="#000000" d="M302.8843,-173.9735C315.8916,-161.2586 333.4853,-144.0603 347.8501,-130.0183"/>
<polygon fill="#000000" stroke="#000000" points="350.3219,-132.4965 355.0262,-123.0034 345.4287,-127.4908 350.3219,-132.4965"/>
<text text-anchor="middle" x="349.4435" y="-144.8" font-family="Times,serif" font-size="14.00" fill="#000000">Não</text>
</g>
<!-- rB -->
<g id="node6" class="node">
<title>rB</title>
<ellipse fill="none" stroke="#000000" cx="73.4435" cy="-18" rx="73.387" ry="18"/>
<text text-anchor="middle" x="73.4435" y="-14.3" font-family="Times,serif" font-size="14.00" fill="#000000">Não tem jogo</text>
</g>
<!-- 3&#45;&gt;rB -->
<g id="edge4" class="edge">
<title>3&#45;&gt;rB</title>
<path fill="none" stroke="#000000" d="M171.7506,-86.9735C152.7569,-73.6473 126.7441,-55.3964 106.2477,-41.0159"/>
<polygon fill="#000000" stroke="#000000" points="108.0342,-37.9938 97.8378,-35.1154 104.0137,-43.7241 108.0342,-37.9938"/>
<text text-anchor="middle" x="157.4435" y="-57.8" font-family="Times,serif" font-size="14.00" fill="#000000">Sim</text>
</g>
<!-- rC -->
<g id="node7" class="node">
<title>rC</title>
<ellipse fill="none" stroke="#000000" cx="220.4435" cy="-18" rx="55.7903" ry="18"/>
<text text-anchor="middle" x="220.4435" y="-14.3" font-family="Times,serif" font-size="14.00" fill="#000000">Tem jogo.</text>
</g>
<!-- 3&#45;&gt;rC -->
<g id="edge5" class="edge">
<title>3&#45;&gt;rC</title>
<path fill="none" stroke="#000000" d="M202.2091,-86.9735C205.3547,-75.0751 209.5381,-59.2508 213.1045,-45.7606"/>
<polygon fill="#000000" stroke="#000000" points="216.5118,-46.5658 215.684,-36.0034 209.7443,-44.7766 216.5118,-46.5658"/>
<text text-anchor="middle" x="225.4435" y="-57.8" font-family="Times,serif" font-size="14.00" fill="#000000">Não</text>
</g>
<!-- rD -->
<g id="node8" class="node">
<title>rD</title>
<ellipse fill="none" stroke="#000000" cx="361.4435" cy="-18" rx="55.7903" ry="18"/>
<text text-anchor="middle" x="361.4435" y="-14.3" font-family="Times,serif" font-size="14.00" fill="#000000">Tem jogo.</text>
</g>
<!-- 4&#45;&gt;rD -->
<g id="edge7" class="edge">
<title>4&#45;&gt;rD</title>
<path fill="none" stroke="#000000" d="M370.9571,-86.9735C369.332,-75.1918 367.176,-59.5607 365.3274,-46.1581"/>
<polygon fill="#000000" stroke="#000000" points="368.7603,-45.4313 363.9267,-36.0034 361.826,-46.3878 368.7603,-45.4313"/>
<text text-anchor="middle" x="382.4435" y="-57.8" font-family="Times,serif" font-size="14.00" fill="#000000">Sim</text>
</g>
<!-- rE -->
<g id="node9" class="node">
<title>rE</title>
<ellipse fill="none" stroke="#000000" cx="511.4435" cy="-18" rx="76.0865" ry="18"/>
<text text-anchor="middle" x="511.4435" y="-14.3" font-family="Times,serif" font-size="14.00" fill="#000000">Não tem jogo.</text>
</g>
<!-- 4&#45;&gt;rE -->
<g id="edge8" class="edge">
<title>4&#45;&gt;rE</title>
<path fill="none" stroke="#000000" d="M402.0372,-86.9735C423.3641,-73.5283 452.6427,-55.0701 475.5451,-40.6316"/>
<polygon fill="#000000" stroke="#000000" points="477.7022,-43.4092 484.2949,-35.1154 473.9691,-37.4877 477.7022,-43.4092"/>
<text text-anchor="middle" x="466.4435" y="-57.8" font-family="Times,serif" font-size="14.00" fill="#000000">Não</text>
</g>
</g>
</svg>
